<?xml version="1.0" encoding="utf-8"?>
<!-- Generator: Adobe Illustrator 23.1.1, SVG Export Plug-In . SVG Version: 6.00 Build 0)  -->
<!DOCTYPE svg PUBLIC "-//W3C//DTD SVG 1.1//EN" "http://www.w3.org/Graphics/SVG/1.1/DTD/svg11.dtd" [
	<!ENTITY ns_extend "http://ns.adobe.com/Extensibility/1.0/">
	<!ENTITY ns_ai "http://ns.adobe.com/AdobeIllustrator/10.0/">
	<!ENTITY ns_graphs "http://ns.adobe.com/Graphs/1.0/">
	<!ENTITY ns_vars "http://ns.adobe.com/Variables/1.0/">
	<!ENTITY ns_imrep "http://ns.adobe.com/ImageReplacement/1.0/">
	<!ENTITY ns_sfw "http://ns.adobe.com/SaveForWeb/1.0/">
	<!ENTITY ns_custom "http://ns.adobe.com/GenericCustomNamespace/1.0/">
	<!ENTITY ns_adobe_xpath "http://ns.adobe.com/XPath/1.0/">
]>
<svg version="1.1" id="Layer_1" xmlns:x="&ns_extend;" xmlns:i="&ns_ai;" xmlns:graph="&ns_graphs;"
	 xmlns="http://www.w3.org/2000/svg" xmlns:xlink="http://www.w3.org/1999/xlink" x="0px" y="0px" viewBox="0 0 448 448"
	 style="enable-background:new 0 0 448 448;" xml:space="preserve">
<style type="text/css">
	.st0{fill:#5E7681;}
</style>
<metadata>
	<sfw  xmlns="&ns_sfw;">
		<slices></slices>
		<sliceSourceBounds  bottomLeftOrigin="true" height="448" width="448" x="0" y="32"></sliceSourceBounds>
	</sfw>
</metadata>
<path class="st0" d="M186.8,170.1l95.2,54.1l-95.2,54.1V170.1z M448,48v352c0,26.5-21.5,48-48,48H48c-26.5,0-48-21.5-48-48V48
	C0,21.5,21.5,0,48,0h352C426.5,0,448,21.5,448,48z M406,224.3c0,0,0-59.6-7.6-88.2c-4.2-15.8-16.5-28.2-32.2-32.4
	C337.9,96,224,96,224,96s-113.9,0-142.2,7.7c-15.7,4.2-28,16.6-32.2,32.4C42,164.6,42,224.3,42,224.3s0,59.6,7.6,88.2
	c4.2,15.8,16.5,27.7,32.2,31.9C110.1,352,224,352,224,352s113.9,0,142.2-7.7c15.7-4.2,28-16.1,32.2-31.9
	C406,283.9,406,224.3,406,224.3L406,224.3z"/>
</svg>
